<svg xmlns="http://www.w3.org/2000/svg" width="256" height="256" viewBox="0 0 256 256">
  <rect width="256" height="256" rx="48" fill="#0d1117"/>
  <rect x="8" y="8" width="240" height="240" rx="42" fill="none" stroke="#2a313b" stroke-width="2"/>
  <g fill="#8b949e">
    <rect x="86" y="48" width="12" height="18" rx="2"/><rect x="110" y="48" width="12" height="18" rx="2"/><rect x="134" y="48" width="12" height="18" rx="2"/><rect x="158" y="48" width="12" height="18" rx="2"/>
    <rect x="86" y="190" width="12" height="18" rx="2"/><rect x="110" y="190" width="12" height="18" rx="2"/><rect x="134" y="190" width="12" height="18" rx="2"/><rect x="158" y="190" width="12" height="18" rx="2"/>
    <rect x="48" y="86" width="18" height="12" rx="2"/><rect x="48" y="110" width="18" height="12" rx="2"/><rect x="48" y="134" width="18" height="12" rx="2"/><rect x="48" y="158" width="18" height="12" rx="2"/>
    <rect x="190" y="86" width="18" height="12" rx="2"/><rect x="190" y="110" width="18" height="12" rx="2"/><rect x="190" y="134" width="18" height="12" rx="2"/><rect x="190" y="158" width="18" height="12" rx="2"/>
  </g>
  <rect x="64" y="64" width="128" height="128" rx="16" fill="#161b22" stroke="#3fb950" stroke-width="4"/>
  <g fill="#3fb950">
    <rect x="82" y="82" width="20" height="20" rx="4"/><rect x="108" y="82" width="20" height="20" rx="4"/><rect x="134" y="82" width="20" height="20" rx="4"/><rect x="160" y="82" width="14" height="20" rx="4" opacity=".35"/>
  </g>
  <g fill="#58a6ff">
    <rect x="82" y="108" width="20" height="20" rx="4"/><rect x="108" y="108" width="20" height="20" rx="4"/><rect x="134" y="108" width="20" height="20" rx="4"/><rect x="160" y="108" width="14" height="20" rx="4" opacity=".35"/>
  </g>
  <g fill="#56d364">
    <rect x="82" y="134" width="20" height="20" rx="4"/><rect x="108" y="134" width="20" height="20" rx="4"/><rect x="134" y="134" width="20" height="20" rx="4" opacity=".35"/><rect x="160" y="134" width="14" height="20" rx="4" opacity=".35"/>
  </g>
  <g fill="#8b949e" opacity=".3">
    <rect x="82" y="160" width="20" height="14" rx="4"/><rect x="108" y="160" width="20" height="14" rx="4"/><rect x="134" y="160" width="20" height="14" rx="4"/><rect x="160" y="160" width="14" height="14" rx="4"/>
  </g>
</svg>
